<svg width="25" height="25" viewBox="0 0 25 25" fill="none" xmlns="http://www.w3.org/2000/svg">
    <path d="M12.511 13.531c.44 0 .844.162 1.15.429-.231.05-.463.097-.692.147a1.246 1.246 0 0 0-1.343.277l-.035.038c-.233.056-.462.114-.687.172a1.745 1.745 0 0 1 1.607-1.062zm-1.813 3.061.516-.168.533-.173 1.968-.64.53-.174 6.237-2.03a.29.29 0 0 0 .162-.128.238.238 0 0 0 .025-.189.24.24 0 0 0-.115-.149.306.306 0 0 0-.206-.03l-6.42 1.343-.548.114-2.026.425-.55.113-.53.112a.79.79 0 0 0-.43.29c-.274.379-.093 1.054.336 1.247.17.074.36.079.518.037zm9.698-4.289c.048.122.092.244.131.369a.54.54 0 0 0-.23 0c-.567.118-1.16.234-1.77.352-.315-1.007-.82-1.787-1.527-2.562l1.247-1.243c.965.897 1.674 1.854 2.15 3.084zm.364 1.218c.184.834.24 1.65.24 2.502h-2.105c0-.607-.02-1.206-.106-1.808l1.767-.576a.529.529 0 0 0 .204-.118zM4 15.9c0-1.092.112-2.082.4-3.018.287-.938.75-1.82 1.451-2.696a8.46 8.46 0 0 1 2.02-1.823 8.428 8.428 0 0 1 2.49-1.091l.154-.04v1.048l-.09.025a7.467 7.467 0 0 0-3.776 2.512c-.625.781-1.031 1.562-1.28 2.39-.25.83-.347 1.713-.347 2.692v.123H4V15.9zm13.79-6.897-1.125 1.12-.087-.08a7.167 7.167 0 0 0-2.53-1.493 7.162 7.162 0 0 0-2.923-.346l-.133.01v-1.08l.104-.017a8.566 8.566 0 0 1 3.527.147 8.476 8.476 0 0 1 3.156 1.557l.108.085-.098.097zm-3.594 6.708a1.7 1.7 0 0 1-.452.779 1.751 1.751 0 0 1-2.326.126l.615-.201a1.248 1.248 0 0 0 1.364-.271c.07-.069.133-.147.185-.232l.614-.201z" fill="#426DDD"/>
</svg>
