<?xml version="1.0" encoding="UTF-8"?>
<svg width="27px" height="36px" viewBox="0 0 27 36" version="1.1" xmlns="http://www.w3.org/2000/svg" xmlns:xlink="http://www.w3.org/1999/xlink">
    <title>AE051A3B-99D8-4537-9DD1-54C6F21EEF47</title>
    <g id="10-Sell-car-Revamp" stroke="none" stroke-width="1" fill="none" fill-rule="evenodd">
        <g id="10.11.0-Sell-form---main---expanded-and-stats" transform="translate(-85.000000, -5170.000000)" fill="#C5C5C5" fill-rule="nonzero">
            <g id="Group-8-Copy-8" transform="translate(15.000000, 5118.000000)">
                <g id="Group-4-Copy-74" transform="translate(0.000000, 36.000000)">
                    <g id="noun-automatic-transmission-1761895" transform="translate(70.000000, 16.000000)">
                        <path d="M22.0908614,14.4009 C24.7982906,14.4009 27.0000066,16.5537 27.0000066,19.2009857 L27.0000066,31.1999143 C27.0000066,33.8472 24.7980338,36 22.0906045,36 L4.90914522,36 C2.20171594,36 6.57462184e-06,33.8472 6.57462184e-06,31.1999143 L6.57462184e-06,19.2003429 C6.57462184e-06,16.5530571 2.20197281,14.4002571 4.90940209,14.4002571 L4.90940209,16.8001714 C3.55568745,16.8001714 2.45496426,17.8764429 2.45496426,19.2000857 L2.45496426,31.2003 C2.45496426,32.5239429 3.55568745,33.6002143 4.90940209,33.6002143 L22.0908614,33.6002143 C23.444576,33.6002143 24.5452992,32.5239429 24.5452992,31.2003 L24.5452992,19.2007286 C24.5452992,17.8770857 23.444576,16.8008143 22.0908614,16.8008143 L22.0908614,14.4009 Z M6.36345155,28.7998714 C6.9157363,28.7998714 7.36345155,29.2475867 7.36345155,29.7998714 L7.36345155,29.7998714 L7.36345155,30.1997857 C7.36345155,30.7520705 6.9157363,31.1997857 6.36345155,31.1997857 L6.36345155,31.1997857 L5.90901372,31.1997857 C5.35672897,31.1997857 4.90901372,30.7520705 4.90901372,30.1997857 L4.90901372,30.1997857 L4.90901372,29.7998714 C4.90901372,29.2475867 5.35672897,28.7998714 5.90901372,28.7998714 L5.90901372,28.7998714 Z M18.4092042,0 C20.4391187,0 22.0909924,1.61517857 22.0909924,3.6 L22.0909924,3.6 L22.0909924,8.40008571 C22.0909924,10.3849071 20.4391187,12.0000857 18.4092042,12.0000857 L18.4092042,12.0000857 L18.0666072,12.0000857 L17.1818603,14.5943357 L17.1818603,27.5999786 C17.1818603,29.5848 15.5299866,31.1999786 13.5000721,31.1999786 C11.4701576,31.1999786 9.81828386,29.5848 9.81828386,27.5999786 L9.81828386,27.5999786 L9.81828386,14.5943357 L8.93327401,12.0000857 L8.59093345,12.0000857 C7.83228783,11.9975786 7.09291901,11.7655457 6.47423395,11.3358857 C5.85575927,10.9062 5.38836283,10.2997929 5.13616691,9.59991429 L5.13616691,9.59991429 L2.45443783,9.59991429 C1.10072319,9.59991429 0,8.52364286 0,7.2 L0,7.2 L0,4.80008571 C0,3.47644286 1.10072319,2.39991429 2.45443783,2.39991429 L2.45443783,2.39991429 L5.13491116,2.39991429 C5.38737663,1.70029286 5.85501634,1.09386 6.4737014,0.6642 C7.09237332,0.23454 7.83175529,0.00251112857 8.59066389,0 L8.59066389,0 Z M14.7271595,15.6004714 L12.2727217,15.6004714 L12.2727217,27.6000429 C12.2727217,28.2624879 12.8238722,28.8001286 13.5000721,28.8001286 L13.5,28.8 L13.6250293,28.794572 C14.2015793,28.7371805 14.6619805,28.2879247 14.7208049,27.723334 L14.7271595,27.6006857 L14.7271595,15.6004714 Z M6.36345155,23.9997857 C6.9157363,23.9997857 7.36345155,24.447501 7.36345155,24.9997857 L7.36345155,24.9997857 L7.36345155,25.3997 C7.36345155,25.9519847 6.9157363,26.3997 6.36345155,26.3997 L6.36345155,26.3997 L5.90901372,26.3997 C5.35672897,26.3997 4.90901372,25.9519847 4.90901372,25.3997 L4.90901372,25.3997 L4.90901372,24.9997857 C4.90901372,24.447501 5.35672897,23.9997857 5.90901372,23.9997857 L5.90901372,23.9997857 Z M6.36345156,19.1998023 L6.48017496,19.2064277 C6.97751316,19.2641928 7.36354657,19.6868642 7.36345155,20.1997 L7.36345155,20.1997 L7.36345155,20.5996143 C7.36334922,21.1518591 6.91569633,21.5995578 6.36345156,21.5997166 L6.36345156,21.5997166 L5.90896256,21.5998527 L5.90896256,21.5998527 L5.79229031,21.5931377 C5.29495211,21.5353726 4.90891871,21.1127013 4.90901372,20.5998655 L4.90901372,20.5998655 L4.90901372,20.1999512 C4.90911606,19.6477064 5.35676894,19.2000077 5.90901372,19.1998488 L5.90901372,19.1998488 L6.36345156,19.1998023 L6.36345156,19.1998023 Z M4.72736421,4.00017143 L2.63648839,4.00017143 C2.08420364,4.00017143 1.63648839,4.44788668 1.63648839,5.00017143 L1.63648839,7.00017143 C1.63648839,7.55245618 2.08420364,8.00017143 2.63648839,8.00017143 L4.72736421,8.00017143 C5.27964896,8.00017143 5.72736421,7.55245618 5.72736421,7.00017143 L5.72736421,5.00017143 C5.72736421,4.44788668 5.27964896,4.00017143 4.72736421,4.00017143 Z" id="Combined-Shape"></path>
                    </g>
                </g>
            </g>
        </g>
    </g>
</svg>