<svg width="25" height="25" viewBox="0 0 25 25" fill="none" xmlns="http://www.w3.org/2000/svg">
    <path d="M9.619 4v1.063H8.161l-.107 6.658c-2.454 1.912-1.245.991-2.24 1.735-.036 0-.036.035-.036.035l-.142-8.428H4.178V4h5.441zM11.005 10.659v-.32c-.07 0-4.765 3.72-4.73 3.684-.533.425-.604 1.204-.249 1.735.392.567 1.103.673 1.636.248l1.103-.885 3.734-2.904a1.735 1.735 0 0 1-1.494-1.558zm-3.983 4.958a.674.674 0 1 1 0-1.346c.391 0 .676.283.676.673 0 .39-.285.673-.676.673zM12.64 9.241a1.231 1.231 0 0 0-1.102 1.346 1.234 1.234 0 0 0 2.454-.248 1.282 1.282 0 0 0-.25-.602h1.815v1.31h.32l.284 2.409c0 .035.071.035.071 0l.285-2.408h.355V9.24c-3.84 0-4.018-.035-4.232 0zm.178 1.771a.517.517 0 0 1-.569-.46c-.036-.284.178-.567.462-.567.285-.035.57.177.57.46.035.248-.178.532-.463.567zM4 19.901h17V21H4v-1.098zM21 13.81v5.525h-2.81c0-.992-.818-1.806-1.813-1.806-.996 0-1.814.814-1.814 1.806H12.5v-2.019c0-.46.356-.814.818-.814.427-.071 1.565.283 2.134-.78l.57-1.027c.32-.566.924-.92 1.6-.92H21v.035z" fill="#426DDD"/>
</svg>
