<svg width="25" height="25" viewBox="0 0 25 25" fill="none" xmlns="http://www.w3.org/2000/svg">
    <path d="M12.86 16.49v1.02c1.127.233 1.872.716 1.872 1.163 0 .627-1.41 1.307-3.302 1.307-1.893 0-3.302-.68-3.302-1.289 0-.447.745-.93 1.872-1.163v-1.02c-1.752.304-3 1.163-3 2.183C7 19.98 8.953 21 11.43 21c2.476 0 4.43-1.02 4.43-2.309 0-1.037-1.229-1.897-3-2.2z" fill="#426DDD"/>
    <path d="M18.556 5.646c-1.43-.304-2.557-.036-3.543.18-1.007.232-1.873.429-3.02.107v-.537a.735.735 0 0 0 .322-.609c0-.43-.403-.787-.886-.787s-.886.358-.886.787c0 .25.12.466.322.609v12.92c0 .268.262.5.564.5.302 0 .564-.232.564-.5v-6.8c.423.09.825.125 1.188.125.765 0 1.45-.16 2.114-.304.946-.215 1.832-.412 3-.18.16.037.342 0 .483-.089a.46.46 0 0 0 .222-.393V6.129c0-.232-.182-.429-.444-.483z" fill="#426DDD"/>
</svg>
