<svg width="25" height="25" viewBox="0 0 25 25" fill="none" xmlns="http://www.w3.org/2000/svg">
    <path fill-rule="evenodd" clip-rule="evenodd" d="M10.69 7.798V6.454H8.883a.595.595 0 0 1-.523-.336.739.739 0 0 1 0-.671.595.595 0 0 1 .523-.336H13.707c.216 0 .415.128.523.336a.739.739 0 0 1 0 .671.595.595 0 0 1-.523.336h-1.81v1.344h2.414c.184.001.357.095.47.255l2.232 3.104h.314V9.813c0-.178.064-.349.177-.475a.574.574 0 0 1 .426-.196h1.207c.48 0 .94.212 1.28.59.339.378.53.89.53 1.425v5.373c0 .535-.191 1.047-.53 1.425-.34.378-.8.59-1.28.59H17.93a.574.574 0 0 1-.426-.196.712.712 0 0 1-.177-.475V16.53h-.603v2.686c0 .178-.064.35-.177.475a.574.574 0 0 1-.426.197h-6.032c-.19 0-.369-.1-.483-.269l-1.628-2.418H6.47a.574.574 0 0 1-.427-.197.713.713 0 0 1-.176-.474v-2.016h-.604v2.015c0 .178-.064.349-.177.475a.574.574 0 0 1-.426.197.574.574 0 0 1-.427-.197.712.712 0 0 1-.177-.475V11.156c0-.24.115-.462.302-.582a.55.55 0 0 1 .603 0c.187.12.302.342.302.582v2.016h.604v-2.687c0-.178.063-.349.176-.475a.574.574 0 0 1 .427-.197h1.206V8.47c0-.178.064-.35.177-.475a.574.574 0 0 1 .426-.197h2.412z" fill="#426DDD"/>
</svg>
