<svg width="25" height="25" viewBox="0 0 25 25" fill="none" xmlns="http://www.w3.org/2000/svg">
    <path d="m18.45 9.278.55-.475C18.171 6.392 16.591 4.581 14.663 4v1.183s.174.098.259.152c1.269.811 2.149 2.363 2.29 4.094l.456 7.228v.032c0 .589-.396 1.069-.883 1.069-.488 0-.885-.48-.885-1.069v-4.133c0-1.306-.81-2.385-1.856-2.543V5.607c0-.823-.557-1.496-1.237-1.496h-4.95c-.681 0-1.238.673-1.238 1.496v13.895H6V21h8.663v-1.497h-.62v-7.961c.358.137.62.537.62 1.014v4.133c0 1.415.951 2.566 2.121 2.566s2.122-1.151 2.122-2.566c0-.032 0-.064-.002-.096l-.455-7.315zM7.855 5.608h4.95v4.356h-4.95V5.608z" fill="#426DDD"/>
</svg>
