<svg width="25" height="25" viewBox="0 0 25 25" fill="none" xmlns="http://www.w3.org/2000/svg">
    <path fill-rule="evenodd" clip-rule="evenodd" d="m6.899 10.116 4.955 2.228c.722.326 1.57.326 2.292 0l4.955-2.228c.363-.166.644-.447.79-.79.146-.341.146-.72 0-1.062a1.546 1.546 0 0 0-.79-.79l-4.955-2.228a2.788 2.788 0 0 0-2.292 0L6.9 7.475a1.546 1.546 0 0 0-.79.789 1.346 1.346 0 0 0 0 1.063c.146.342.427.623.79.789zm12.203 1.565-.177-.076-4.155 1.876a4.416 4.416 0 0 1-3.54 0l-4.154-1.876-.177.076a1.546 1.546 0 0 0-.79.79c-.145.341-.145.72 0 1.062.146.342.427.623.79.789l4.955 2.229c.722.325 1.57.325 2.292 0l4.955-2.229c.363-.166.644-.447.79-.789.146-.342.146-.72 0-1.063a1.545 1.545 0 0 0-.79-.789zm-.168 4.13.168.075c.362.166.643.447.789.79.146.341.146.72 0 1.062a1.546 1.546 0 0 1-.79.79l-4.955 2.228a2.81 2.81 0 0 1-2.292 0L6.9 18.527a1.546 1.546 0 0 1-.79-.789 1.346 1.346 0 0 1 0-1.063c.146-.342.427-.623.79-.789l.177-.075 4.136 1.867c1.119.51 2.44.51 3.558 0l4.164-1.868z" fill="#426DDD"/>
</svg>
