<svg width="36" height="33" viewBox="0 0 36 33" xmlns="http://www.w3.org/2000/svg">
    <path d="M4.714 0C2.111 0 0 2.084 0 4.654s2.11 4.654 4.714 4.654c2.604 0 4.715-2.084 4.715-4.654S7.319 0 4.714 0zM18 0c-2.604 0-4.714 2.084-4.714 4.654S15.396 9.308 18 9.308c2.604 0 4.715-2.084 4.715-4.654S20.604 0 18 0zm13.286 0c-2.604 0-4.715 2.084-4.715 4.654s2.11 4.654 4.715 4.654C33.889 9.308 36 7.224 36 4.654S33.89 0 31.286 0zM3.856 10.947v11.106c.282-.037.567-.053.858-.053.291 0 .577.016.858.053v-4.707h11.571v4.707A6.57 6.57 0 0 1 18 22c.291 0 .576.016.857.053v-4.707h12.429c.516 0 .857-.35.857-.846v-5.553a6.57 6.57 0 0 1-.857.053c-.291 0-.577-.016-.858-.053v4.707H18.857v-4.707A6.57 6.57 0 0 1 18 11a6.57 6.57 0 0 1-.857-.053v4.707H5.57v-4.707c-.28.037-.566.053-.857.053a6.57 6.57 0 0 1-.857-.053zm.858 12.745C2.111 23.692 0 25.776 0 28.346S2.11 33 4.714 33c2.604 0 4.715-2.084 4.715-4.654s-2.11-4.654-4.715-4.654zm13.286 0c-2.604 0-4.715 2.084-4.715 4.654S15.396 33 18 33c2.604 0 4.714-2.084 4.714-4.654s-2.11-4.654-4.714-4.654z" fill="#C5C5C5" fill-rule="nonzero"/>
</svg>
