<svg width="25" height="25" viewBox="0 0 25 25" fill="none" xmlns="http://www.w3.org/2000/svg">
    <path d="m20.995 12.616-.83-3.007c-.02-.076-.098-.128-.186-.128-.01 0-.019 0-.028.002l-2.384.316c-.085.012-.15.07-.161.144l-.094.872c-.01.067.027.132.094.166l.293.148a.21.21 0 0 0 .163.012l1.625-.276.825 1.851c.028.064.099.107.178.107h.319a.203.203 0 0 0 .15-.064.152.152 0 0 0 .036-.143zm-8.565 2.111a.215.215 0 0 0-.155-.016l-.011.003a.193.193 0 0 0-.092.054l-2.083 2.22a.15.15 0 0 0-.03.165l1.444 3.349c.028.065.1.108.18.108h.382c.054 0 .105-.02.141-.054a.153.153 0 0 0 .05-.128l-.31-3.145.883-.668c.051-.04.075-.1.062-.16l-.371-1.617a.17.17 0 0 0-.09-.11zm5.879-3.083-1.039-.524-.192-.098.163-1.097.01-.068a.158.158 0 0 0-.03-.118l-1.315-1.796.6-.61 1.836.923a.223.223 0 0 0 .173.011c.057-.019.1-.059.12-.11l.369-.996a.157.157 0 0 0-.027-.155l-2.35-2.93a.212.212 0 0 0-.18-.076.204.204 0 0 0-.166.097l-.284.497a3.603 3.603 0 0 0-1.261-.075c-.343.038-.68.118-1.007.241a4.377 4.377 0 0 0-1.51.968 4.311 4.311 0 0 0-.82 1.128l-.029.053a4.858 4.858 0 0 0-.301.812 4.839 4.839 0 0 0-.142.715 4.423 4.423 0 0 0-.001 1.056c.03.247.082.486.158.713.072.216.17.416.284.606L8.724 12.22l-1.297-.921a.221.221 0 0 0-.106-.027.213.213 0 0 0-.156.064c-1.964 1.084-3.066 2.775-3.15 5.016a8.388 8.388 0 0 0-.013.538l.682 1.995c.027.073.105.122.192.122h.006c.09-.003.167-.057.19-.133l2.356-6.52.737.582-.807 1.112a.158.158 0 0 0-.03.115l.257 1.85-.803.7a.16.16 0 0 0-.05.177l1.41 3.986c.026.074.104.124.192.124h.538a.215.215 0 0 0 .149-.058.162.162 0 0 0 .05-.135l-.388-3.4 1.29-.59a.197.197 0 0 0 .064-.045l2.043-2.244 3.836-1.039a.202.202 0 0 0 .108-.07l.691-.906.396.03-.246 1.96a.158.158 0 0 0 .027.109l.336.498a.209.209 0 0 0 .205.085c.082-.012.148-.066.165-.137l.806-3.224c.02-.074-.02-.151-.095-.19z" fill="#426DDD"/>
</svg>
