<svg width="25" height="25" viewBox="0 0 25 25" fill="none" xmlns="http://www.w3.org/2000/svg">
    <path d="M9.41 16.167a1.423 1.423 0 0 1 1.251.745 1.63 1.63 0 0 0 .412-.503c.132-.252.21-.528.23-.812a2.666 2.666 0 0 0-.43-1.662c-.33-.53-.626-1.083-.884-1.653-.44-.97-.759-1.992-.945-3.043-.034-.186-.07-.364-.109-.533a1.328 1.328 0 0 0-.46-.743 1.298 1.298 0 0 0-.816-.29c-.06 0-.113.006-.172.012l-.022.001c-.058.01-.114.022-.17.037V7.15a1.27 1.27 0 0 0 .83-.326c.23-.207.378-.49.418-.798l.205-1.562a1.308 1.308 0 0 0-.253-.956A1.276 1.276 0 0 0 7.48 3c-.31 0-.608.115-.84.322a1.302 1.302 0 0 0-.425.803l-.204 1.562c-.042.324.038.652.225.919.187.266.466.451.781.518v.707c-.33.16-.59.435-.736.775-.145.34-.165.72-.055 1.074l2.117 6.97c.27-.31.66-.486 1.067-.483z" fill="#426DDD"/>
    <path d="M10.566 17.621a1.176 1.176 0 0 0-.582-1.004 1.146 1.146 0 0 0-1.15 0 1.176 1.176 0 0 0-.583 1.004c.005.416.226.798.583 1.004.356.207.793.207 1.15 0 .356-.206.578-.588.582-1.004z" fill="#426DDD"/>
    <path d="M18.965 17a1.645 1.645 0 0 0-.62-1.088 1.604 1.604 0 0 0-1.198-.324l-5.744.776a1.893 1.893 0 0 1-.295.495c-.082.1-.173.191-.272.273l-.06.047a1.465 1.465 0 0 1-.352 1.47 1.428 1.428 0 0 1-1.152.42v.595h8.658l.033-.022c.808-.53 1.154-1.443 1.002-2.641zM9.272 19.946v.195c0 .228.09.446.248.607.16.161.375.252.6.252h7.06c.224 0 .44-.091.598-.252a.865.865 0 0 0 .248-.607v-.204l-.012.008H9.272z" fill="#426DDD"/>
</svg>
