<svg width="25" height="25" viewBox="0 0 25 25" fill="none" xmlns="http://www.w3.org/2000/svg">
    <path d="M7.596 12.667c-.903 0-1.635.746-1.635 1.667 0 .92.732 1.666 1.635 1.666.902 0 1.634-.746 1.634-1.666 0-.92-.732-1.667-1.634-1.667zm0 2.334a.66.66 0 0 1-.654-.667.66.66 0 0 1 .654-.667.66.66 0 0 1 .653.667.66.66 0 0 1-.653.667zM17.404 12.667c-.903 0-1.634.746-1.634 1.667 0 .92.731 1.666 1.634 1.666.903 0 1.635-.746 1.635-1.666 0-.92-.732-1.667-1.635-1.667zm0 2.334a.66.66 0 0 1-.654-.667.66.66 0 0 1 .654-.667.66.66 0 0 1 .654.667.661.661 0 0 1-.654.667z" fill="#426DDD"/>
    <path d="M19.474 11.394c-.67-.346-1.47-.427-2.125-.783-.248-.136-.477-.345-.713-.503-.913-.61-1.88-1.151-2.899-1.552-.8-.315-1.253-.534-2.52-.555-2.777-.046-7.097 2.246-7.209 4.342-.11 2.053.906 2.52 1.388 2.626a2.364 2.364 0 0 1-.089-.635C5.307 13.047 6.334 12 7.596 12c1.262 0 2.288 1.047 2.288 2.334 0 .353-.08.685-.217.985l.182.015h5.49a2.358 2.358 0 0 1-.224-1c0-1.287 1.027-2.334 2.289-2.334 1.262 0 2.288 1.047 2.288 2.334 0 .358-.082.696-.223 1h.183S21 14.856 21 13.153c0-.855-.863-1.417-1.526-1.759zM9.26 10.669l-3.376-.003s.43-.314.539-.387a9.904 9.904 0 0 1 1.95-1.015 9.83 9.83 0 0 1 1.458-.446l-.57 1.85zm1.156.19.607-1.969c.194-.02.39-.034.584-.034h.07c1.503.012 3.123.996 4.2 2.006-1.458 0-3.586-.002-5.46-.004z" fill="#426DDD"/>
</svg>
