<svg width="25" height="25" viewBox="0 0 25 25" fill="none" xmlns="http://www.w3.org/2000/svg">
    <path d="M21 10.13c0-1.747-1.43-3.167-3.198-3.194l-8.57-2.744c-.005-.002-.013 0-.018-.002A3.297 3.297 0 0 0 8.126 4C6.348 4 4.9 5.418 4.885 7.168v.003l-.823 9.077v.008A4.037 4.037 0 0 0 4 16.93C4 19.173 5.85 21 8.123 21c1.102 0 2.099-.43 2.84-1.123.005-.005.013-.005.018-.01l8.669-7.138c.005-.005.008-.013.016-.018A3.182 3.182 0 0 0 21 10.13zm-.535 0c0 1.29-.928 2.365-2.16 2.618-.006 0-.008.003-.014.003a2.66 2.66 0 0 1-.267.039 2.92 2.92 0 0 1-.535 0c-.013-.003-.03-.003-.043-.005-1.347-.153-2.4-1.284-2.4-2.655 0-1.47 1.213-2.667 2.705-2.67h.005c1.492.003 2.71 1.2 2.71 2.67zm-8.219 6.693c-.059-2.19-1.882-3.957-4.123-3.957-.818 0-1.577.24-2.219.646l.337-3.714c.532.377 1.182.601 1.882.601 1.79 0 3.246-1.436 3.246-3.2 0-.25-.032-.492-.088-.724l4.227 1.354a3.169 3.169 0 0 0-1.002 2.304c0 1.402.92 2.591 2.192 3.023l-4.452 3.667zM8.126 4.527c1.495 0 2.711 1.197 2.711 2.67 0 1.473-1.216 2.673-2.71 2.673-1.493 0-2.71-1.2-2.71-2.673s1.214-2.67 2.71-2.67zm-3.59 12.404c0-1.95 1.609-3.538 3.588-3.538 1.98 0 3.593 1.587 3.593 3.538 0 1.953-1.612 3.542-3.594 3.542-1.975 0-3.588-1.59-3.588-3.542z" fill="#426DDD"/>
    <path d="M9.438 17.88a1 1 0 0 0 .297-.71v-.477a1 1 0 0 0-.298-.712l-.351-.346a1 1 0 0 0-.702-.288H7.87a1 1 0 0 0-.702.288l-.353.347a1 1 0 0 0-.297.71l-.001.478a1 1 0 0 0 .297.714l.353.348a1 1 0 0 0 .704.287h.513a1 1 0 0 0 .701-.29l.353-.348zM16.814 9.334a1 1 0 0 0-.298.712v.176a1 1 0 0 0 .296.711l.135.133a1 1 0 0 0 .706.29l.205-.001a1 1 0 0 0 .7-.288l.138-.136a1 1 0 0 0 .298-.712v-.173a1 1 0 0 0-.298-.712l-.137-.136a1 1 0 0 0-.702-.287h-.204a1 1 0 0 0-.702.287l-.137.136zM7.298 6.444a1 1 0 0 0-.297.708v.084a1 1 0 0 0 .298.715l.068.067a1 1 0 0 0 .705.288h.114a1 1 0 0 0 .698-.287l.07-.069a1 1 0 0 0 .3-.714v-.081a1 1 0 0 0-.298-.713l-.07-.069a1 1 0 0 0-.702-.288h-.112a1 1 0 0 0-.704.29l-.07.069z" fill="#426DDD"/>
</svg>
